<svg width="189" height="36" viewBox="0 0 189 36" fill="none" xmlns="http://www.w3.org/2000/svg">
<path d="M7.09281 27.1337C10.6221 27.1337 13.9025 24.8557 13.9025 20.6662C13.9025 18.0737 12.6546 15.8856 10.3421 14.8244C8.77968 14.1054 7.24836 14.1054 7.09281 14.1054C5.46816 14.1054 3.90573 13.1375 3.90573 11.3262C3.90573 9.29363 5.37483 8.29464 7.09281 8.29464C8.74857 8.29464 10.152 9.10697 10.2177 10.9183H13.8403C13.7781 7.20233 10.871 4.63745 7.09281 4.63745C3.56006 4.63745 0.248535 7.16776 0.248535 11.3262C0.248535 13.9187 1.53097 15.8545 3.8124 16.9191C5.40594 17.6381 6.90269 17.6381 7.09281 17.6381C8.55845 17.7003 10.2799 18.8238 10.2799 20.6662C10.2799 22.3842 8.77968 23.4799 7.09281 23.4799C5.46816 23.4799 3.96795 22.5743 3.90573 20.7595H0.248535C0.310756 24.8557 3.31118 27.0404 7.09281 27.1337Z" fill="black"/>
<path d="M34.4622 4.95227H30.805V14.0123H21.7138V4.95227H18.0566V26.8228H21.7138V17.7006H30.805V26.8228H34.4622V4.95227Z" fill="black"/>
<path d="M49.3608 4.45081C34.9602 4.45081 34.9256 26.8848 49.3608 26.8848C63.7338 26.8848 63.7027 4.45081 49.3608 4.45081ZM49.3608 23.3555C39.8963 23.3555 39.9275 8.01467 49.3608 8.01467C58.8287 8.01467 58.8287 23.3555 49.3608 23.3555Z" fill="black"/>
<path d="M84.3233 27.6974L93.0722 4.95227H89.135L84.3233 17.8561L79.5116 4.95227H75.45L70.6382 17.8561L65.8576 4.95227H61.9204L70.6382 27.6974L77.4825 9.70178L84.3233 27.6974Z" fill="black"/>
<path d="M105.818 23.4799C101.787 23.4799 98.569 20.5729 98.569 15.8856C98.569 11.4817 101.317 8.29464 105.818 8.29464C107.816 8.29464 109.662 9.10697 110.972 10.4205L113.533 7.85564C111.566 5.85767 108.849 4.63745 105.818 4.63745C99.4125 4.63745 94.8496 9.29363 94.8496 15.8856C94.8496 22.761 99.7858 27.1337 105.818 27.1337C108.849 27.1337 111.566 25.9169 113.533 23.9466L110.972 21.3541C109.662 22.6676 107.816 23.4799 105.818 23.4799Z" fill="black"/>
<path d="M127.375 24.2926L128.343 26.8229H132.28L123.531 4.32666L114.813 26.8229H118.751L119.687 24.2926H127.375ZM120.877 21.1366L123.531 13.5422L126.186 21.1366H120.877Z" fill="black"/>
<path d="M140.809 27.1337C144.338 27.1337 147.619 24.8868 147.619 20.6973C147.619 18.1048 146.371 15.8856 144.058 14.8244C142.496 14.1054 140.965 14.1054 140.809 14.1054C139.184 14.1054 137.622 13.1375 137.622 11.3262C137.622 9.29363 139.091 8.29464 140.809 8.29464C142.465 8.29464 143.868 9.10697 143.934 10.9183H147.557C147.494 7.20233 144.587 4.63745 140.809 4.63745C137.276 4.63745 133.965 7.16776 133.965 11.3262C133.965 13.9187 135.247 15.8545 137.529 16.9191C139.122 17.6381 140.619 17.6381 140.809 17.6381C142.275 17.7003 143.996 18.8549 143.996 20.6973C143.996 22.4187 142.496 23.4799 140.809 23.4799C139.184 23.4799 137.684 22.5743 137.622 20.7595H133.965C134.027 24.8557 137.027 27.0404 140.809 27.1337Z" fill="black"/>
<mask id="mask0_190_887" style="mask-type:luminance" maskUnits="userSpaceOnUse" x="148" y="3" width="41" height="30">
<path d="M148.062 3.15979H188.768V32.362H148.062V3.15979Z" fill="white"/>
</mask>
<g mask="url(#mask0_190_887)">
<mask id="mask1_190_887" style="mask-type:luminance" maskUnits="userSpaceOnUse" x="148" y="-6" width="41" height="48">
<path d="M188.723 3.18989L176.719 41.3329L148.072 32.3169L160.077 -5.8252L188.723 3.18989Z" fill="white"/>
</mask>
<g mask="url(#mask1_190_887)">
<mask id="mask2_190_887" style="mask-type:luminance" maskUnits="userSpaceOnUse" x="148" y="-6" width="41" height="48">
<path d="M188.723 3.18982L176.719 41.3328L148.112 32.3298L160.115 -5.81317L188.723 3.18982Z" fill="white"/>
</mask>
<g mask="url(#mask2_190_887)">
<mask id="mask3_190_887" style="mask-type:luminance" maskUnits="userSpaceOnUse" x="148" y="3" width="41" height="30">
<path d="M179.72 31.7971L188.723 3.18939L157.115 3.72259L148.112 32.3294L179.72 31.7971Z" fill="white"/>
</mask>
<g mask="url(#mask3_190_887)">
<path d="M179.72 31.7975L188.723 3.1898L157.115 3.72301L148.112 32.3298L179.72 31.7975Z" stroke="black" stroke-width="5.5"/>
</g>
</g>
</g>
</g>
<mask id="mask4_190_887" style="mask-type:luminance" maskUnits="userSpaceOnUse" x="159" y="0" width="4" height="36">
<path d="M159.904 0.37793H162.949V35.2639H159.904V0.37793Z" fill="white"/>
</mask>
<g mask="url(#mask4_190_887)">
<mask id="mask5_190_887" style="mask-type:luminance" maskUnits="userSpaceOnUse" x="159" y="0" width="4" height="36">
<path d="M160.734 0.37793H162.119C162.577 0.37793 162.949 0.749526 162.949 1.20754V34.4282C162.949 34.8862 162.577 35.2578 162.119 35.2578H160.734C160.276 35.2578 159.904 34.8862 159.904 34.4282V1.20754C159.904 0.749526 160.276 0.37793 160.734 0.37793Z" fill="white"/>
</mask>
<g mask="url(#mask5_190_887)">
<path d="M159.904 0.37793H162.949V35.2518H159.904V0.37793Z" fill="#FF66C4"/>
</g>
</g>
<mask id="mask6_190_887" style="mask-type:luminance" maskUnits="userSpaceOnUse" x="164" y="0" width="4" height="36">
<path d="M164.818 0.37793H167.862V35.2639H164.818V0.37793Z" fill="white"/>
</mask>
<g mask="url(#mask6_190_887)">
<mask id="mask7_190_887" style="mask-type:luminance" maskUnits="userSpaceOnUse" x="164" y="0" width="4" height="36">
<path d="M165.647 0.37793H167.033C167.491 0.37793 167.862 0.749526 167.862 1.20754V34.4282C167.862 34.8862 167.491 35.2578 167.033 35.2578H165.647C165.189 35.2578 164.818 34.8862 164.818 34.4282V1.20754C164.818 0.749526 165.189 0.37793 165.647 0.37793Z" fill="white"/>
</mask>
<g mask="url(#mask7_190_887)">
<path d="M164.818 0.37793H167.862V35.2518H164.818V0.37793Z" fill="#FF914D"/>
</g>
</g>
<mask id="mask8_190_887" style="mask-type:luminance" maskUnits="userSpaceOnUse" x="169" y="0" width="4" height="36">
<path d="M169.795 0.263672H172.841V35.1496H169.795V0.263672Z" fill="white"/>
</mask>
<g mask="url(#mask8_190_887)">
<mask id="mask9_190_887" style="mask-type:luminance" maskUnits="userSpaceOnUse" x="169" y="0" width="4" height="36">
<path d="M170.625 0.263672H172.011C172.469 0.263672 172.841 0.635268 172.841 1.09328V34.3139C172.841 34.772 172.469 35.1436 172.011 35.1436H170.625C170.167 35.1436 169.795 34.772 169.795 34.3139V1.09328C169.795 0.635268 170.167 0.263672 170.625 0.263672Z" fill="white"/>
</mask>
<g mask="url(#mask9_190_887)">
<path d="M169.795 0.263672H172.841V35.1375H169.795V0.263672Z" fill="#38B6FF"/>
</g>
</g>
<mask id="mask10_190_887" style="mask-type:luminance" maskUnits="userSpaceOnUse" x="174" y="0" width="4" height="36">
<path d="M174.774 0.37793H177.819V35.2639H174.774V0.37793Z" fill="white"/>
</mask>
<g mask="url(#mask10_190_887)">
<mask id="mask11_190_887" style="mask-type:luminance" maskUnits="userSpaceOnUse" x="174" y="0" width="4" height="36">
<path d="M175.604 0.37793H176.99C177.448 0.37793 177.819 0.749526 177.819 1.20754V34.4282C177.819 34.8862 177.448 35.2578 176.99 35.2578H175.604C175.146 35.2578 174.774 34.8862 174.774 34.4282V1.20754C174.774 0.749526 175.146 0.37793 175.604 0.37793Z" fill="white"/>
</mask>
<g mask="url(#mask11_190_887)">
<path d="M174.774 0.37793H177.819V35.2518H174.774V0.37793Z" fill="#8C52FF"/>
</g>
</g>
</svg>
